<svg xmlns="http://www.w3.org/2000/svg" xmlns:xlink="http://www.w3.org/1999/xlink" width="500" zoomAndPan="magnify" viewBox="0 0 375 374.999991" height="500" preserveAspectRatio="xMidYMid meet" version="1.0"><defs><g/><clipPath id="0af637734c"><path d="M 37.5 84.65625 L 337.5 84.65625 L 337.5 206.90625 L 37.5 206.90625 Z M 37.5 84.65625 " clip-rule="nonzero"/></clipPath><clipPath id="78749d0562"><path d="M 236.675781 124.105469 L 220.28125 139.195312 L 284.125 197 L 275.144531 206.925781 L 210.394531 148.292969 L 189.773438 167.273438 L 222.609375 197.003906 L 213.632812 206.925781 L 166.390625 164.152344 L 119.945312 206.890625 L 110.890625 197.039062 L 166.316406 146.035156 L 179.8125 158.253906 L 200.4375 139.273438 L 160.128906 102.773438 L 46.988281 206.890625 L 37.933594 197.039062 L 160.054688 84.65625 L 210.324219 130.175781 L 236.605469 105.988281 L 337.089844 196.988281 L 328.113281 206.910156 Z M 236.675781 124.105469 " clip-rule="nonzero"/></clipPath><linearGradient x1="0.00000191449" gradientTransform="matrix(0.678776, 0, 0, 0.679167, 37.931698, 84.655728)" y1="90.014" x2="440.73098" gradientUnits="userSpaceOnUse" y2="90.014" id="766cb50921"><stop stop-opacity="1" stop-color="rgb(90.59906%, 83.099365%, 61.999512%)" offset="0"/><stop stop-opacity="1" stop-color="rgb(90.576172%, 83.041382%, 61.90033%)" offset="0.0078125"/><stop stop-opacity="1" stop-color="rgb(90.530396%, 82.923889%, 61.705017%)" offset="0.015625"/><stop stop-opacity="1" stop-color="rgb(90.483093%, 82.807922%, 61.508179%)" offset="0.0234375"/><stop stop-opacity="1" stop-color="rgb(90.437317%, 82.691956%, 61.312866%)" offset="0.03125"/><stop stop-opacity="1" stop-color="rgb(90.391541%, 82.574463%, 61.116028%)" offset="0.0390625"/><stop stop-opacity="1" stop-color="rgb(90.345764%, 82.458496%, 60.920715%)" offset="0.046875"/><stop stop-opacity="1" stop-color="rgb(90.299988%, 82.342529%, 60.723877%)" offset="0.0546875"/><stop stop-opacity="1" stop-color="rgb(90.252686%, 82.226562%, 60.528564%)" offset="0.0625"/><stop stop-opacity="1" stop-color="rgb(90.206909%, 82.10907%, 60.331726%)" offset="0.0703125"/><stop stop-opacity="1" stop-color="rgb(90.161133%, 81.993103%, 60.136414%)" offset="0.078125"/><stop stop-opacity="1" stop-color="rgb(90.115356%, 81.877136%, 59.939575%)" offset="0.0859375"/><stop stop-opacity="1" stop-color="rgb(90.06958%, 81.759644%, 59.744263%)" offset="0.09375"/><stop stop-opacity="1" stop-color="rgb(90.022278%, 81.643677%, 59.547424%)" offset="0.101562"/><stop stop-opacity="1" stop-color="rgb(89.976501%, 81.52771%, 59.352112%)" offset="0.109375"/><stop stop-opacity="1" stop-color="rgb(89.930725%, 81.411743%, 59.155273%)" offset="0.117187"/><stop stop-opacity="1" stop-color="rgb(89.884949%, 81.29425%, 58.959961%)" offset="0.125"/><stop stop-opacity="1" stop-color="rgb(89.839172%, 81.178284%, 58.763123%)" offset="0.132812"/><stop stop-opacity="1" stop-color="rgb(89.79187%, 81.062317%, 58.56781%)" offset="0.140625"/><stop stop-opacity="1" stop-color="rgb(89.746094%, 80.944824%, 58.370972%)" offset="0.148438"/><stop stop-opacity="1" stop-color="rgb(89.700317%, 80.828857%, 58.175659%)" offset="0.15625"/><stop stop-opacity="1" stop-color="rgb(89.654541%, 80.712891%, 57.978821%)" offset="0.164062"/><stop stop-opacity="1" stop-color="rgb(89.608765%, 80.596924%, 57.783508%)" offset="0.171875"/><stop stop-opacity="1" stop-color="rgb(89.561462%, 80.479431%, 57.58667%)" offset="0.179688"/><stop stop-opacity="1" stop-color="rgb(89.515686%, 80.363464%, 57.391357%)" offset="0.1875"/><stop stop-opacity="1" stop-color="rgb(89.46991%, 80.247498%, 57.194519%)" offset="0.195312"/><stop stop-opacity="1" stop-color="rgb(89.424133%, 80.130005%, 56.999207%)" offset="0.203125"/><stop stop-opacity="1" stop-color="rgb(89.378357%, 80.014038%, 56.802368%)" offset="0.210938"/><stop stop-opacity="1" stop-color="rgb(89.331055%, 79.898071%, 56.60553%)" offset="0.21875"/><stop stop-opacity="1" stop-color="rgb(89.285278%, 79.782104%, 56.410217%)" offset="0.226562"/><stop stop-opacity="1" stop-color="rgb(89.239502%, 79.664612%, 56.213379%)" offset="0.234375"/><stop stop-opacity="1" stop-color="rgb(89.193726%, 79.548645%, 56.018066%)" offset="0.242188"/><stop stop-opacity="1" stop-color="rgb(89.146423%, 79.432678%, 55.821228%)" offset="0.25"/><stop stop-opacity="1" stop-color="rgb(89.100647%, 79.315186%, 55.625916%)" offset="0.257812"/><stop stop-opacity="1" stop-color="rgb(89.054871%, 79.199219%, 55.429077%)" offset="0.265625"/><stop stop-opacity="1" stop-color="rgb(89.009094%, 79.083252%, 55.233765%)" offset="0.273437"/><stop stop-opacity="1" stop-color="rgb(88.963318%, 78.967285%, 55.036926%)" offset="0.28125"/><stop stop-opacity="1" stop-color="rgb(88.916016%, 78.849792%, 54.841614%)" offset="0.289062"/><stop stop-opacity="1" stop-color="rgb(88.870239%, 78.733826%, 54.644775%)" offset="0.296875"/><stop stop-opacity="1" stop-color="rgb(88.824463%, 78.617859%, 54.449463%)" offset="0.304687"/><stop stop-opacity="1" stop-color="rgb(88.778687%, 78.500366%, 54.252625%)" offset="0.3125"/><stop stop-opacity="1" stop-color="rgb(88.73291%, 78.384399%, 54.057312%)" offset="0.320312"/><stop stop-opacity="1" stop-color="rgb(88.685608%, 78.268433%, 53.860474%)" offset="0.328125"/><stop stop-opacity="1" stop-color="rgb(88.639832%, 78.152466%, 53.665161%)" offset="0.335937"/><stop stop-opacity="1" stop-color="rgb(88.594055%, 78.034973%, 53.468323%)" offset="0.34375"/><stop stop-opacity="1" stop-color="rgb(88.548279%, 77.919006%, 53.27301%)" offset="0.351562"/><stop stop-opacity="1" stop-color="rgb(88.502502%, 77.80304%, 53.076172%)" offset="0.359375"/><stop stop-opacity="1" stop-color="rgb(88.4552%, 77.685547%, 52.880859%)" offset="0.367187"/><stop stop-opacity="1" stop-color="rgb(88.409424%, 77.56958%, 52.684021%)" offset="0.375"/><stop stop-opacity="1" stop-color="rgb(88.363647%, 77.453613%, 52.488708%)" offset="0.382812"/><stop stop-opacity="1" stop-color="rgb(88.317871%, 77.337646%, 52.29187%)" offset="0.390625"/><stop stop-opacity="1" stop-color="rgb(88.272095%, 77.220154%, 52.096558%)" offset="0.398437"/><stop stop-opacity="1" stop-color="rgb(88.224792%, 77.104187%, 51.899719%)" offset="0.40625"/><stop stop-opacity="1" stop-color="rgb(88.179016%, 76.98822%, 51.704407%)" offset="0.414062"/><stop stop-opacity="1" stop-color="rgb(88.13324%, 76.870728%, 51.507568%)" offset="0.421875"/><stop stop-opacity="1" stop-color="rgb(88.087463%, 76.754761%, 51.312256%)" offset="0.429687"/><stop stop-opacity="1" stop-color="rgb(88.040161%, 76.638794%, 51.115417%)" offset="0.4375"/><stop stop-opacity="1" stop-color="rgb(87.994385%, 76.522827%, 50.920105%)" offset="0.445312"/><stop stop-opacity="1" stop-color="rgb(87.948608%, 76.405334%, 50.723267%)" offset="0.453125"/><stop stop-opacity="1" stop-color="rgb(87.902832%, 76.289368%, 50.527954%)" offset="0.460937"/><stop stop-opacity="1" stop-color="rgb(87.857056%, 76.173401%, 50.331116%)" offset="0.46875"/><stop stop-opacity="1" stop-color="rgb(87.809753%, 76.055908%, 50.135803%)" offset="0.476562"/><stop stop-opacity="1" stop-color="rgb(87.763977%, 75.939941%, 49.938965%)" offset="0.484375"/><stop stop-opacity="1" stop-color="rgb(87.718201%, 75.823975%, 49.743652%)" offset="0.492187"/><stop stop-opacity="1" stop-color="rgb(87.672424%, 75.706482%, 49.546814%)" offset="0.5"/><stop stop-opacity="1" stop-color="rgb(87.626648%, 75.590515%, 49.351501%)" offset="0.507812"/><stop stop-opacity="1" stop-color="rgb(87.579346%, 75.474548%, 49.154663%)" offset="0.515625"/><stop stop-opacity="1" stop-color="rgb(87.533569%, 75.358582%, 48.959351%)" offset="0.523438"/><stop stop-opacity="1" stop-color="rgb(87.487793%, 75.241089%, 48.762512%)" offset="0.53125"/><stop stop-opacity="1" stop-color="rgb(87.442017%, 75.125122%, 48.565674%)" offset="0.539062"/><stop stop-opacity="1" stop-color="rgb(87.39624%, 75.009155%, 48.370361%)" offset="0.546875"/><stop stop-opacity="1" stop-color="rgb(87.348938%, 74.891663%, 48.173523%)" offset="0.554687"/><stop stop-opacity="1" stop-color="rgb(87.303162%, 74.775696%, 47.97821%)" offset="0.5625"/><stop stop-opacity="1" stop-color="rgb(87.257385%, 74.659729%, 47.781372%)" offset="0.570312"/><stop stop-opacity="1" stop-color="rgb(87.211609%, 74.543762%, 47.58606%)" offset="0.578125"/><stop stop-opacity="1" stop-color="rgb(87.165833%, 74.42627%, 47.389221%)" offset="0.585937"/><stop stop-opacity="1" stop-color="rgb(87.11853%, 74.310303%, 47.193909%)" offset="0.59375"/><stop stop-opacity="1" stop-color="rgb(87.072754%, 74.194336%, 46.99707%)" offset="0.601562"/><stop stop-opacity="1" stop-color="rgb(87.026978%, 74.076843%, 46.801758%)" offset="0.609375"/><stop stop-opacity="1" stop-color="rgb(86.981201%, 73.960876%, 46.604919%)" offset="0.617187"/><stop stop-opacity="1" stop-color="rgb(86.933899%, 73.84491%, 46.409607%)" offset="0.625"/><stop stop-opacity="1" stop-color="rgb(86.888123%, 73.728943%, 46.212769%)" offset="0.632813"/><stop stop-opacity="1" stop-color="rgb(86.842346%, 73.61145%, 46.017456%)" offset="0.640625"/><stop stop-opacity="1" stop-color="rgb(86.79657%, 73.495483%, 45.820618%)" offset="0.648438"/><stop stop-opacity="1" stop-color="rgb(86.750793%, 73.379517%, 45.625305%)" offset="0.65625"/><stop stop-opacity="1" stop-color="rgb(86.703491%, 73.262024%, 45.428467%)" offset="0.664063"/><stop stop-opacity="1" stop-color="rgb(86.657715%, 73.146057%, 45.233154%)" offset="0.671875"/><stop stop-opacity="1" stop-color="rgb(86.611938%, 73.03009%, 45.036316%)" offset="0.679688"/><stop stop-opacity="1" stop-color="rgb(86.566162%, 72.914124%, 44.841003%)" offset="0.6875"/><stop stop-opacity="1" stop-color="rgb(86.520386%, 72.796631%, 44.644165%)" offset="0.695313"/><stop stop-opacity="1" stop-color="rgb(86.473083%, 72.680664%, 44.448853%)" offset="0.703125"/><stop stop-opacity="1" stop-color="rgb(86.427307%, 72.564697%, 44.252014%)" offset="0.710938"/><stop stop-opacity="1" stop-color="rgb(86.381531%, 72.447205%, 44.056702%)" offset="0.71875"/><stop stop-opacity="1" stop-color="rgb(86.335754%, 72.331238%, 43.859863%)" offset="0.726562"/><stop stop-opacity="1" stop-color="rgb(86.289978%, 72.215271%, 43.664551%)" offset="0.734375"/><stop stop-opacity="1" stop-color="rgb(86.242676%, 72.099304%, 43.467712%)" offset="0.742188"/><stop stop-opacity="1" stop-color="rgb(86.196899%, 71.981812%, 43.2724%)" offset="0.75"/><stop stop-opacity="1" stop-color="rgb(86.151123%, 71.865845%, 43.075562%)" offset="0.757812"/><stop stop-opacity="1" stop-color="rgb(86.105347%, 71.749878%, 42.880249%)" offset="0.765625"/><stop stop-opacity="1" stop-color="rgb(86.05957%, 71.632385%, 42.683411%)" offset="0.773438"/><stop stop-opacity="1" stop-color="rgb(86.012268%, 71.516418%, 42.488098%)" offset="0.78125"/><stop stop-opacity="1" stop-color="rgb(85.966492%, 71.400452%, 42.29126%)" offset="0.789062"/><stop stop-opacity="1" stop-color="rgb(85.920715%, 71.284485%, 42.095947%)" offset="0.796875"/><stop stop-opacity="1" stop-color="rgb(85.874939%, 71.166992%, 41.899109%)" offset="0.804687"/><stop stop-opacity="1" stop-color="rgb(85.827637%, 71.051025%, 41.703796%)" offset="0.8125"/><stop stop-opacity="1" stop-color="rgb(85.78186%, 70.935059%, 41.506958%)" offset="0.820312"/><stop stop-opacity="1" stop-color="rgb(85.736084%, 70.817566%, 41.311646%)" offset="0.828125"/><stop stop-opacity="1" stop-color="rgb(85.690308%, 70.701599%, 41.114807%)" offset="0.835937"/><stop stop-opacity="1" stop-color="rgb(85.644531%, 70.585632%, 40.919495%)" offset="0.84375"/><stop stop-opacity="1" stop-color="rgb(85.597229%, 70.469666%, 40.722656%)" offset="0.851562"/><stop stop-opacity="1" stop-color="rgb(85.551453%, 70.352173%, 40.527344%)" offset="0.859375"/><stop stop-opacity="1" stop-color="rgb(85.505676%, 70.236206%, 40.330505%)" offset="0.867187"/><stop stop-opacity="1" stop-color="rgb(85.4599%, 70.120239%, 40.133667%)" offset="0.875"/><stop stop-opacity="1" stop-color="rgb(85.414124%, 70.002747%, 39.938354%)" offset="0.882813"/><stop stop-opacity="1" stop-color="rgb(85.366821%, 69.88678%, 39.741516%)" offset="0.890625"/><stop stop-opacity="1" stop-color="rgb(85.321045%, 69.770813%, 39.546204%)" offset="0.898438"/><stop stop-opacity="1" stop-color="rgb(85.275269%, 69.654846%, 39.349365%)" offset="0.90625"/><stop stop-opacity="1" stop-color="rgb(85.229492%, 69.537354%, 39.154053%)" offset="0.914063"/><stop stop-opacity="1" stop-color="rgb(85.183716%, 69.421387%, 38.957214%)" offset="0.921875"/><stop stop-opacity="1" stop-color="rgb(85.136414%, 69.30542%, 38.761902%)" offset="0.929688"/><stop stop-opacity="1" stop-color="rgb(85.090637%, 69.187927%, 38.565063%)" offset="0.9375"/><stop stop-opacity="1" stop-color="rgb(85.044861%, 69.07196%, 38.369751%)" offset="0.945313"/><stop stop-opacity="1" stop-color="rgb(84.999084%, 68.955994%, 38.172913%)" offset="0.953125"/><stop stop-opacity="1" stop-color="rgb(84.953308%, 68.838501%, 37.9776%)" offset="0.960938"/><stop stop-opacity="1" stop-color="rgb(84.906006%, 68.722534%, 37.780762%)" offset="0.96875"/><stop stop-opacity="1" stop-color="rgb(84.860229%, 68.606567%, 37.585449%)" offset="0.976562"/><stop stop-opacity="1" stop-color="rgb(84.814453%, 68.490601%, 37.388611%)" offset="0.984375"/><stop stop-opacity="1" stop-color="rgb(84.768677%, 68.373108%, 37.193298%)" offset="0.992188"/><stop stop-opacity="1" stop-color="rgb(84.721375%, 68.257141%, 36.99646%)" offset="1"/></linearGradient></defs><rect x="-37.5" width="450" fill="#ffffff" y="-37.499999" height="449.999989" fill-opacity="1"/><rect x="-37.5" width="450" fill="#1d1f1c" y="-37.499999" height="449.999989" fill-opacity="1"/><g clip-path="url(#0af637734c)"><g clip-path="url(#78749d0562)"><path fill="url(#766cb50921)" d="M 37.933594 84.65625 L 37.933594 206.90625 L 337.089844 206.90625 L 337.089844 84.65625 Z M 37.933594 84.65625 " fill-rule="nonzero"/></g></g><g fill="#e7d49e" fill-opacity="1"><g transform="translate(24.560259, 259.355373)"><g/></g></g><g fill="#e7d49e" fill-opacity="1"><g transform="translate(33.888383, 259.355373)"><g><path d="M 20.78125 -4.890625 C 20.78125 -3.796875 20.460938 -2.921875 19.828125 -2.265625 C 19.191406 -1.617188 18.425781 -1.125 17.53125 -0.78125 C 16.644531 -0.445312 15.710938 -0.234375 14.734375 -0.140625 C 13.753906 -0.046875 12.910156 0 12.203125 0 L 2.59375 0 L 2.59375 -16.265625 C 2.59375 -16.492188 2.613281 -16.738281 2.65625 -17 C 2.707031 -17.257812 2.785156 -17.492188 2.890625 -17.703125 C 2.992188 -17.910156 3.128906 -18.082031 3.296875 -18.21875 C 3.472656 -18.351562 3.6875 -18.421875 3.9375 -18.421875 L 11.515625 -18.421875 C 12.203125 -18.421875 12.976562 -18.363281 13.84375 -18.25 C 14.707031 -18.132812 15.523438 -17.925781 16.296875 -17.625 C 17.078125 -17.332031 17.726562 -16.914062 18.25 -16.375 C 18.78125 -15.84375 19.046875 -15.148438 19.046875 -14.296875 C 19.046875 -13.492188 18.84375 -12.828125 18.4375 -12.296875 C 18.039062 -11.773438 17.53125 -11.351562 16.90625 -11.03125 C 16.28125 -10.71875 15.609375 -10.488281 14.890625 -10.34375 C 14.171875 -10.195312 13.492188 -10.097656 12.859375 -10.046875 L 12.859375 -9.984375 C 13.648438 -9.960938 14.503906 -9.863281 15.421875 -9.6875 C 16.347656 -9.519531 17.203125 -9.242188 17.984375 -8.859375 C 18.773438 -8.472656 19.4375 -7.953125 19.96875 -7.296875 C 20.507812 -6.648438 20.78125 -5.847656 20.78125 -4.890625 Z M 16.921875 -5.203125 C 16.921875 -6.066406 16.707031 -6.78125 16.28125 -7.34375 C 15.863281 -7.914062 15.34375 -8.363281 14.71875 -8.6875 C 14.09375 -9.019531 13.429688 -9.25 12.734375 -9.375 C 12.035156 -9.507812 11.40625 -9.578125 10.84375 -9.578125 L 7.078125 -9.578125 L 7.421875 -10.296875 L 9.5 -10.296875 C 11.53125 -10.296875 13.023438 -10.644531 13.984375 -11.34375 C 14.941406 -12.050781 15.421875 -13 15.421875 -14.1875 C 15.421875 -15.226562 15.015625 -16.070312 14.203125 -16.71875 C 13.390625 -17.375 12.207031 -17.703125 10.65625 -17.703125 L 7.046875 -17.703125 C 6.660156 -17.703125 6.375 -17.519531 6.1875 -17.15625 C 6.007812 -16.789062 5.921875 -16.414062 5.921875 -16.03125 L 5.921875 -0.71875 L 12 -0.71875 C 13.5 -0.71875 14.691406 -1.070312 15.578125 -1.78125 C 16.472656 -2.488281 16.921875 -3.628906 16.921875 -5.203125 Z M 16.921875 -5.203125 "/></g></g></g><g fill="#e7d49e" fill-opacity="1"><g transform="translate(55.733299, 259.355373)"><g><path d="M 19.75 -7.3125 C 19.75 -4.53125 19.082031 -2.519531 17.75 -1.28125 C 16.425781 -0.0390625 14.375 0.578125 11.59375 0.578125 C 10.5 0.578125 9.421875 0.5 8.359375 0.34375 C 7.296875 0.1875 6.347656 -0.113281 5.515625 -0.5625 C 4.679688 -1.007812 4.003906 -1.632812 3.484375 -2.4375 C 2.960938 -3.25 2.703125 -4.304688 2.703125 -5.609375 L 2.703125 -18.421875 L 6.046875 -18.421875 L 6.046875 -5.640625 C 6.046875 -4.734375 6.195312 -3.941406 6.5 -3.265625 C 6.8125 -2.585938 7.238281 -2.015625 7.78125 -1.546875 C 8.332031 -1.085938 8.976562 -0.738281 9.71875 -0.5 C 10.46875 -0.257812 11.285156 -0.140625 12.171875 -0.140625 C 14.566406 -0.140625 16.304688 -0.707031 17.390625 -1.84375 C 18.484375 -2.988281 19.03125 -4.800781 19.03125 -7.28125 L 19.03125 -18.421875 L 19.75 -18.421875 Z M 19.75 -7.3125 "/></g></g></g><g fill="#e7d49e" fill-opacity="1"><g transform="translate(78.125048, 259.355373)"><g><path d="M 2.59375 0 L 2.59375 -18.421875 L 5.921875 -18.421875 L 5.921875 0 Z M 2.59375 0 "/></g></g></g><g fill="#e7d49e" fill-opacity="1"><g transform="translate(86.644281, 259.355373)"><g><path d="M 4.0625 0 C 3.8125 0 3.597656 -0.0664062 3.421875 -0.203125 C 3.253906 -0.335938 3.113281 -0.507812 3 -0.71875 C 2.894531 -0.925781 2.816406 -1.160156 2.765625 -1.421875 C 2.722656 -1.679688 2.703125 -1.925781 2.703125 -2.15625 L 2.703125 -18.421875 L 6.046875 -18.421875 L 6.046875 -2.390625 C 6.046875 -2.003906 6.132812 -1.628906 6.3125 -1.265625 C 6.5 -0.898438 6.785156 -0.71875 7.171875 -0.71875 L 18.15625 -0.71875 L 18.15625 0 Z M 4.0625 0 "/></g></g></g><g fill="#e7d49e" fill-opacity="1"><g transform="translate(105.380822, 259.355373)"><g><path d="M 21.640625 -9.265625 C 21.640625 -8.242188 21.429688 -7.1875 21.015625 -6.09375 C 20.609375 -5.007812 19.988281 -4.015625 19.15625 -3.109375 C 18.320312 -2.203125 17.28125 -1.457031 16.03125 -0.875 C 14.78125 -0.289062 13.3125 0 11.625 0 L 2.59375 0 L 2.59375 -18.421875 L 10.9375 -18.421875 C 12.46875 -18.421875 13.882812 -18.203125 15.1875 -17.765625 C 16.5 -17.335938 17.628906 -16.71875 18.578125 -15.90625 C 19.523438 -15.101562 20.269531 -14.140625 20.8125 -13.015625 C 21.363281 -11.898438 21.640625 -10.648438 21.640625 -9.265625 Z M 17.78125 -9.671875 C 17.78125 -15.023438 15.269531 -17.703125 10.25 -17.703125 L 5.921875 -17.703125 L 5.921875 -0.71875 L 9.328125 -0.71875 C 10.898438 -0.71875 12.226562 -0.921875 13.3125 -1.328125 C 14.394531 -1.742188 15.265625 -2.335938 15.921875 -3.109375 C 16.585938 -3.890625 17.0625 -4.832031 17.34375 -5.9375 C 17.632812 -7.039062 17.78125 -8.285156 17.78125 -9.671875 Z M 17.78125 -9.671875 "/></g></g></g><g fill="#e7d49e" fill-opacity="1"><g transform="translate(128.290633, 259.355373)"><g/></g></g><g fill="#e7d49e" fill-opacity="1"><g transform="translate(137.615736, 259.355373)"><g><path d="M 19.40625 -13.578125 C 19.40625 -12.597656 19.054688 -11.785156 18.359375 -11.140625 C 17.671875 -10.503906 16.8125 -10 15.78125 -9.625 C 14.757812 -9.25 13.664062 -8.984375 12.5 -8.828125 C 11.34375 -8.679688 10.296875 -8.609375 9.359375 -8.609375 C 8.910156 -8.609375 8.46875 -8.613281 8.03125 -8.625 C 7.601562 -8.644531 7.285156 -8.675781 7.078125 -8.71875 L 7.28125 -9.40625 C 7.4375 -9.375 7.65625 -9.351562 7.9375 -9.34375 C 8.226562 -9.332031 8.523438 -9.328125 8.828125 -9.328125 C 11.003906 -9.328125 12.664062 -9.722656 13.8125 -10.515625 C 14.96875 -11.316406 15.546875 -12.394531 15.546875 -13.75 C 15.546875 -14.5 15.363281 -15.128906 15 -15.640625 C 14.632812 -16.148438 14.160156 -16.554688 13.578125 -16.859375 C 13.003906 -17.171875 12.367188 -17.390625 11.671875 -17.515625 C 10.972656 -17.640625 10.285156 -17.703125 9.609375 -17.703125 L 7.046875 -17.703125 C 6.660156 -17.703125 6.375 -17.519531 6.1875 -17.15625 C 6.007812 -16.789062 5.921875 -16.414062 5.921875 -16.03125 L 5.921875 0 L 2.59375 0 L 2.59375 -16.265625 C 2.59375 -16.492188 2.613281 -16.738281 2.65625 -17 C 2.707031 -17.257812 2.785156 -17.492188 2.890625 -17.703125 C 2.992188 -17.910156 3.128906 -18.082031 3.296875 -18.21875 C 3.472656 -18.351562 3.6875 -18.421875 3.9375 -18.421875 L 10.828125 -18.421875 C 11.566406 -18.421875 12.429688 -18.351562 13.421875 -18.21875 C 14.410156 -18.082031 15.347656 -17.832031 16.234375 -17.46875 C 17.117188 -17.101562 17.867188 -16.609375 18.484375 -15.984375 C 19.097656 -15.359375 19.40625 -14.554688 19.40625 -13.578125 Z M 19.40625 -13.578125 "/></g></g></g><g fill="#e7d49e" fill-opacity="1"><g transform="translate(157.330838, 259.355373)"><g><path d="M 16.859375 0 L 15.484375 -3.765625 C 15.179688 -4.628906 14.890625 -5.410156 14.609375 -6.109375 C 14.328125 -6.816406 14 -7.414062 13.625 -7.90625 C 13.25 -8.394531 12.785156 -8.765625 12.234375 -9.015625 C 11.691406 -9.273438 10.988281 -9.40625 10.125 -9.40625 L 7.078125 -9.40625 L 7.421875 -10.125 L 11.140625 -10.125 C 11.921875 -10.125 12.601562 -10.234375 13.1875 -10.453125 C 13.78125 -10.679688 14.269531 -10.976562 14.65625 -11.34375 C 15.050781 -11.707031 15.347656 -12.125 15.546875 -12.59375 C 15.753906 -13.0625 15.859375 -13.535156 15.859375 -14.015625 C 15.859375 -15.085938 15.488281 -15.96875 14.75 -16.65625 C 14.007812 -17.351562 12.875 -17.703125 11.34375 -17.703125 L 7.046875 -17.703125 C 6.660156 -17.703125 6.375 -17.519531 6.1875 -17.15625 C 6.007812 -16.789062 5.921875 -16.414062 5.921875 -16.03125 L 5.921875 0 L 2.59375 0 L 2.59375 -16.265625 C 2.59375 -16.492188 2.613281 -16.738281 2.65625 -17 C 2.707031 -17.257812 2.789062 -17.492188 2.90625 -17.703125 C 3.019531 -17.910156 3.160156 -18.082031 3.328125 -18.21875 C 3.503906 -18.351562 3.707031 -18.421875 3.9375 -18.421875 L 12.140625 -18.421875 C 14.828125 -18.421875 16.757812 -18.035156 17.9375 -17.265625 C 19.125 -16.503906 19.71875 -15.476562 19.71875 -14.1875 C 19.71875 -13.1875 19.453125 -12.394531 18.921875 -11.8125 C 18.390625 -11.226562 17.734375 -10.773438 16.953125 -10.453125 C 16.179688 -10.140625 15.34375 -9.9375 14.4375 -9.84375 C 13.539062 -9.75 12.71875 -9.703125 11.96875 -9.703125 L 11.96875 -9.640625 C 12.695312 -9.566406 13.390625 -9.445312 14.046875 -9.28125 C 14.710938 -9.113281 15.332031 -8.867188 15.90625 -8.546875 C 16.488281 -8.222656 17.015625 -7.796875 17.484375 -7.265625 C 17.953125 -6.734375 18.34375 -6.066406 18.65625 -5.265625 L 20.6875 0 Z M 16.859375 0 "/></g></g></g><g fill="#e7d49e" fill-opacity="1"><g transform="translate(179.175753, 259.355373)"><g><path d="M 22.859375 -9.203125 C 22.859375 -7.734375 22.550781 -6.394531 21.9375 -5.1875 C 21.332031 -3.976562 20.523438 -2.945312 19.515625 -2.09375 C 18.515625 -1.238281 17.363281 -0.578125 16.0625 -0.109375 C 14.757812 0.347656 13.394531 0.578125 11.96875 0.578125 C 10.570312 0.578125 9.210938 0.347656 7.890625 -0.109375 C 6.578125 -0.578125 5.414062 -1.238281 4.40625 -2.09375 C 3.40625 -2.945312 2.601562 -3.976562 2 -5.1875 C 1.394531 -6.394531 1.09375 -7.734375 1.09375 -9.203125 C 1.09375 -10.679688 1.394531 -12.023438 2 -13.234375 C 2.601562 -14.441406 3.40625 -15.472656 4.40625 -16.328125 C 5.414062 -17.179688 6.578125 -17.835938 7.890625 -18.296875 C 9.210938 -18.765625 10.570312 -19 11.96875 -19 C 13.394531 -19 14.757812 -18.765625 16.0625 -18.296875 C 17.363281 -17.835938 18.515625 -17.179688 19.515625 -16.328125 C 20.523438 -15.472656 21.332031 -14.441406 21.9375 -13.234375 C 22.550781 -12.023438 22.859375 -10.679688 22.859375 -9.203125 Z M 19 -9.203125 C 19 -10.285156 18.878906 -11.363281 18.640625 -12.4375 C 18.398438 -13.507812 18.003906 -14.476562 17.453125 -15.34375 C 16.910156 -16.207031 16.1875 -16.910156 15.28125 -17.453125 C 14.382812 -18.003906 13.28125 -18.28125 11.96875 -18.28125 C 10.664062 -18.28125 9.5625 -18.003906 8.65625 -17.453125 C 7.757812 -16.910156 7.035156 -16.207031 6.484375 -15.34375 C 5.941406 -14.476562 5.550781 -13.507812 5.3125 -12.4375 C 5.070312 -11.363281 4.953125 -10.285156 4.953125 -9.203125 C 4.953125 -8.128906 5.070312 -7.054688 5.3125 -5.984375 C 5.550781 -4.910156 5.941406 -3.941406 6.484375 -3.078125 C 7.035156 -2.210938 7.757812 -1.503906 8.65625 -0.953125 C 9.5625 -0.410156 10.664062 -0.140625 11.96875 -0.140625 C 13.28125 -0.140625 14.382812 -0.410156 15.28125 -0.953125 C 16.1875 -1.503906 16.910156 -2.210938 17.453125 -3.078125 C 18.003906 -3.941406 18.398438 -4.910156 18.640625 -5.984375 C 18.878906 -7.054688 19 -8.128906 19 -9.203125 Z M 19 -9.203125 "/></g></g></g><g fill="#e7d49e" fill-opacity="1"><g transform="translate(203.150472, 259.355373)"><g><path d="M 6.90625 -17.703125 C 6.519531 -17.703125 6.234375 -17.519531 6.046875 -17.15625 C 5.867188 -16.789062 5.78125 -16.414062 5.78125 -16.03125 L 5.78125 -10.078125 L 14.5625 -10.078125 L 14.5625 -9.359375 L 5.78125 -9.359375 L 5.78125 0 L 2.453125 0 L 2.453125 -16.265625 C 2.453125 -16.492188 2.472656 -16.738281 2.515625 -17 C 2.566406 -17.257812 2.644531 -17.492188 2.75 -17.703125 C 2.851562 -17.910156 2.988281 -18.082031 3.15625 -18.21875 C 3.332031 -18.351562 3.546875 -18.421875 3.796875 -18.421875 L 17.5 -18.421875 L 17.5 -17.703125 Z M 6.90625 -17.703125 "/></g></g></g><g fill="#e7d49e" fill-opacity="1"><g transform="translate(221.771896, 259.355373)"><g><path d="M 2.59375 0 L 2.59375 -18.421875 L 5.921875 -18.421875 L 5.921875 0 Z M 2.59375 0 "/></g></g></g><g fill="#e7d49e" fill-opacity="1"><g transform="translate(230.291141, 259.355373)"><g/></g></g><g fill="#e7d49e" fill-opacity="1"><g transform="translate(239.616244, 259.355373)"><g><path d="M 20.671875 -1.984375 C 20.171875 -1.546875 19.585938 -1.160156 18.921875 -0.828125 C 18.265625 -0.503906 17.5625 -0.238281 16.8125 -0.03125 C 16.0625 0.175781 15.273438 0.328125 14.453125 0.421875 C 13.640625 0.523438 12.832031 0.578125 12.03125 0.578125 C 10.6875 0.578125 9.363281 0.375 8.0625 -0.03125 C 6.769531 -0.4375 5.609375 -1.039062 4.578125 -1.84375 C 3.554688 -2.644531 2.726562 -3.660156 2.09375 -4.890625 C 1.46875 -6.117188 1.15625 -7.554688 1.15625 -9.203125 C 1.15625 -10.679688 1.457031 -12.023438 2.0625 -13.234375 C 2.664062 -14.441406 3.476562 -15.472656 4.5 -16.328125 C 5.53125 -17.179688 6.71875 -17.835938 8.0625 -18.296875 C 9.40625 -18.765625 10.820312 -19 12.3125 -19 C 14.0625 -19 15.535156 -18.832031 16.734375 -18.5 C 17.929688 -18.175781 18.867188 -17.820312 19.546875 -17.4375 L 19.28125 -16.75 C 18.613281 -17.1875 17.738281 -17.550781 16.65625 -17.84375 C 15.582031 -18.132812 14.289062 -18.28125 12.78125 -18.28125 C 11.4375 -18.28125 10.273438 -18.003906 9.296875 -17.453125 C 8.316406 -16.910156 7.507812 -16.191406 6.875 -15.296875 C 6.238281 -14.398438 5.769531 -13.378906 5.46875 -12.234375 C 5.164062 -11.097656 5.015625 -9.9375 5.015625 -8.75 C 5.015625 -7.59375 5.1875 -6.5 5.53125 -5.46875 C 5.875 -4.4375 6.359375 -3.519531 6.984375 -2.71875 C 7.609375 -1.925781 8.347656 -1.296875 9.203125 -0.828125 C 10.066406 -0.367188 11.007812 -0.140625 12.03125 -0.140625 C 14.007812 -0.140625 15.382812 -0.5 16.15625 -1.21875 C 16.9375 -1.9375 17.328125 -3.046875 17.328125 -4.546875 L 17.328125 -9.359375 L 20.671875 -9.359375 Z M 20.671875 -1.984375 "/></g></g></g><g fill="#e7d49e" fill-opacity="1"><g transform="translate(262.497285, 259.355373)"><g><path d="M 16.859375 0 L 15.484375 -3.765625 C 15.179688 -4.628906 14.890625 -5.410156 14.609375 -6.109375 C 14.328125 -6.816406 14 -7.414062 13.625 -7.90625 C 13.25 -8.394531 12.785156 -8.765625 12.234375 -9.015625 C 11.691406 -9.273438 10.988281 -9.40625 10.125 -9.40625 L 7.078125 -9.40625 L 7.421875 -10.125 L 11.140625 -10.125 C 11.921875 -10.125 12.601562 -10.234375 13.1875 -10.453125 C 13.78125 -10.679688 14.269531 -10.976562 14.65625 -11.34375 C 15.050781 -11.707031 15.347656 -12.125 15.546875 -12.59375 C 15.753906 -13.0625 15.859375 -13.535156 15.859375 -14.015625 C 15.859375 -15.085938 15.488281 -15.96875 14.75 -16.65625 C 14.007812 -17.351562 12.875 -17.703125 11.34375 -17.703125 L 7.046875 -17.703125 C 6.660156 -17.703125 6.375 -17.519531 6.1875 -17.15625 C 6.007812 -16.789062 5.921875 -16.414062 5.921875 -16.03125 L 5.921875 0 L 2.59375 0 L 2.59375 -16.265625 C 2.59375 -16.492188 2.613281 -16.738281 2.65625 -17 C 2.707031 -17.257812 2.789062 -17.492188 2.90625 -17.703125 C 3.019531 -17.910156 3.160156 -18.082031 3.328125 -18.21875 C 3.503906 -18.351562 3.707031 -18.421875 3.9375 -18.421875 L 12.140625 -18.421875 C 14.828125 -18.421875 16.757812 -18.035156 17.9375 -17.265625 C 19.125 -16.503906 19.71875 -15.476562 19.71875 -14.1875 C 19.71875 -13.1875 19.453125 -12.394531 18.921875 -11.8125 C 18.390625 -11.226562 17.734375 -10.773438 16.953125 -10.453125 C 16.179688 -10.140625 15.34375 -9.9375 14.4375 -9.84375 C 13.539062 -9.75 12.71875 -9.703125 11.96875 -9.703125 L 11.96875 -9.640625 C 12.695312 -9.566406 13.390625 -9.445312 14.046875 -9.28125 C 14.710938 -9.113281 15.332031 -8.867188 15.90625 -8.546875 C 16.488281 -8.222656 17.015625 -7.796875 17.484375 -7.265625 C 17.953125 -6.734375 18.34375 -6.066406 18.65625 -5.265625 L 20.6875 0 Z M 16.859375 0 "/></g></g></g><g fill="#e7d49e" fill-opacity="1"><g transform="translate(284.342201, 259.355373)"><g><path d="M 22.859375 -9.203125 C 22.859375 -7.734375 22.550781 -6.394531 21.9375 -5.1875 C 21.332031 -3.976562 20.523438 -2.945312 19.515625 -2.09375 C 18.515625 -1.238281 17.363281 -0.578125 16.0625 -0.109375 C 14.757812 0.347656 13.394531 0.578125 11.96875 0.578125 C 10.570312 0.578125 9.210938 0.347656 7.890625 -0.109375 C 6.578125 -0.578125 5.414062 -1.238281 4.40625 -2.09375 C 3.40625 -2.945312 2.601562 -3.976562 2 -5.1875 C 1.394531 -6.394531 1.09375 -7.734375 1.09375 -9.203125 C 1.09375 -10.679688 1.394531 -12.023438 2 -13.234375 C 2.601562 -14.441406 3.40625 -15.472656 4.40625 -16.328125 C 5.414062 -17.179688 6.578125 -17.835938 7.890625 -18.296875 C 9.210938 -18.765625 10.570312 -19 11.96875 -19 C 13.394531 -19 14.757812 -18.765625 16.0625 -18.296875 C 17.363281 -17.835938 18.515625 -17.179688 19.515625 -16.328125 C 20.523438 -15.472656 21.332031 -14.441406 21.9375 -13.234375 C 22.550781 -12.023438 22.859375 -10.679688 22.859375 -9.203125 Z M 19 -9.203125 C 19 -10.285156 18.878906 -11.363281 18.640625 -12.4375 C 18.398438 -13.507812 18.003906 -14.476562 17.453125 -15.34375 C 16.910156 -16.207031 16.1875 -16.910156 15.28125 -17.453125 C 14.382812 -18.003906 13.28125 -18.28125 11.96875 -18.28125 C 10.664062 -18.28125 9.5625 -18.003906 8.65625 -17.453125 C 7.757812 -16.910156 7.035156 -16.207031 6.484375 -15.34375 C 5.941406 -14.476562 5.550781 -13.507812 5.3125 -12.4375 C 5.070312 -11.363281 4.953125 -10.285156 4.953125 -9.203125 C 4.953125 -8.128906 5.070312 -7.054688 5.3125 -5.984375 C 5.550781 -4.910156 5.941406 -3.941406 6.484375 -3.078125 C 7.035156 -2.210938 7.757812 -1.503906 8.65625 -0.953125 C 9.5625 -0.410156 10.664062 -0.140625 11.96875 -0.140625 C 13.28125 -0.140625 14.382812 -0.410156 15.28125 -0.953125 C 16.1875 -1.503906 16.910156 -2.210938 17.453125 -3.078125 C 18.003906 -3.941406 18.398438 -4.910156 18.640625 -5.984375 C 18.878906 -7.054688 19 -8.128906 19 -9.203125 Z M 19 -9.203125 "/></g></g></g><g fill="#e7d49e" fill-opacity="1"><g transform="translate(308.316908, 259.355373)"><g><path d="M 19.75 -7.3125 C 19.75 -4.53125 19.082031 -2.519531 17.75 -1.28125 C 16.425781 -0.0390625 14.375 0.578125 11.59375 0.578125 C 10.5 0.578125 9.421875 0.5 8.359375 0.34375 C 7.296875 0.1875 6.347656 -0.113281 5.515625 -0.5625 C 4.679688 -1.007812 4.003906 -1.632812 3.484375 -2.4375 C 2.960938 -3.25 2.703125 -4.304688 2.703125 -5.609375 L 2.703125 -18.421875 L 6.046875 -18.421875 L 6.046875 -5.640625 C 6.046875 -4.734375 6.195312 -3.941406 6.5 -3.265625 C 6.8125 -2.585938 7.238281 -2.015625 7.78125 -1.546875 C 8.332031 -1.085938 8.976562 -0.738281 9.71875 -0.5 C 10.46875 -0.257812 11.285156 -0.140625 12.171875 -0.140625 C 14.566406 -0.140625 16.304688 -0.707031 17.390625 -1.84375 C 18.484375 -2.988281 19.03125 -4.800781 19.03125 -7.28125 L 19.03125 -18.421875 L 19.75 -18.421875 Z M 19.75 -7.3125 "/></g></g></g><g fill="#e7d49e" fill-opacity="1"><g transform="translate(330.708645, 259.355373)"><g><path d="M 19.40625 -13.578125 C 19.40625 -12.597656 19.054688 -11.785156 18.359375 -11.140625 C 17.671875 -10.503906 16.8125 -10 15.78125 -9.625 C 14.757812 -9.25 13.664062 -8.984375 12.5 -8.828125 C 11.34375 -8.679688 10.296875 -8.609375 9.359375 -8.609375 C 8.910156 -8.609375 8.46875 -8.613281 8.03125 -8.625 C 7.601562 -8.644531 7.285156 -8.675781 7.078125 -8.71875 L 7.28125 -9.40625 C 7.4375 -9.375 7.65625 -9.351562 7.9375 -9.34375 C 8.226562 -9.332031 8.523438 -9.328125 8.828125 -9.328125 C 11.003906 -9.328125 12.664062 -9.722656 13.8125 -10.515625 C 14.96875 -11.316406 15.546875 -12.394531 15.546875 -13.75 C 15.546875 -14.5 15.363281 -15.128906 15 -15.640625 C 14.632812 -16.148438 14.160156 -16.554688 13.578125 -16.859375 C 13.003906 -17.171875 12.367188 -17.390625 11.671875 -17.515625 C 10.972656 -17.640625 10.285156 -17.703125 9.609375 -17.703125 L 7.046875 -17.703125 C 6.660156 -17.703125 6.375 -17.519531 6.1875 -17.15625 C 6.007812 -16.789062 5.921875 -16.414062 5.921875 -16.03125 L 5.921875 0 L 2.59375 0 L 2.59375 -16.265625 C 2.59375 -16.492188 2.613281 -16.738281 2.65625 -17 C 2.707031 -17.257812 2.785156 -17.492188 2.890625 -17.703125 C 2.992188 -17.910156 3.128906 -18.082031 3.296875 -18.21875 C 3.472656 -18.351562 3.6875 -18.421875 3.9375 -18.421875 L 10.828125 -18.421875 C 11.566406 -18.421875 12.429688 -18.351562 13.421875 -18.21875 C 14.410156 -18.082031 15.347656 -17.832031 16.234375 -17.46875 C 17.117188 -17.101562 17.867188 -16.609375 18.484375 -15.984375 C 19.097656 -15.359375 19.40625 -14.554688 19.40625 -13.578125 Z M 19.40625 -13.578125 "/></g></g></g><g fill="#d8ae5e" fill-opacity="1"><g transform="translate(97.334339, 298.829716)"><g><path d="M 5.375 -10.015625 C 4.90625 -10.015625 4.46875 -9.945312 4.0625 -9.8125 C 3.664062 -9.6875 3.320312 -9.445312 3.03125 -9.09375 C 2.738281 -8.75 2.507812 -8.28125 2.34375 -7.6875 C 2.1875 -7.09375 2.109375 -6.347656 2.109375 -5.453125 C 2.109375 -4.535156 2.191406 -3.78125 2.359375 -3.1875 C 2.523438 -2.59375 2.753906 -2.125 3.046875 -1.78125 C 3.347656 -1.445312 3.703125 -1.210938 4.109375 -1.078125 C 4.523438 -0.941406 4.972656 -0.875 5.453125 -0.875 C 6.003906 -0.875 6.484375 -0.945312 6.890625 -1.09375 C 7.304688 -1.238281 7.675781 -1.4375 8 -1.6875 L 8.5625 -0.78125 C 8.113281 -0.4375 7.625 -0.191406 7.09375 -0.046875 C 6.570312 0.0859375 6.015625 0.15625 5.421875 0.15625 C 4.765625 0.15625 4.160156 0.0703125 3.609375 -0.09375 C 3.054688 -0.269531 2.582031 -0.570312 2.1875 -1 C 1.789062 -1.425781 1.484375 -2 1.265625 -2.71875 C 1.046875 -3.4375 0.9375 -4.347656 0.9375 -5.453125 C 0.9375 -6.546875 1.046875 -7.453125 1.265625 -8.171875 C 1.492188 -8.898438 1.800781 -9.472656 2.1875 -9.890625 C 2.582031 -10.316406 3.054688 -10.613281 3.609375 -10.78125 C 4.160156 -10.957031 4.769531 -11.046875 5.4375 -11.046875 C 5.988281 -11.046875 6.492188 -10.988281 6.953125 -10.875 C 7.421875 -10.757812 7.851562 -10.554688 8.25 -10.265625 L 8.25 -9.15625 L 7.96875 -9.15625 C 7.664062 -9.414062 7.300781 -9.625 6.875 -9.78125 C 6.445312 -9.9375 5.945312 -10.015625 5.375 -10.015625 Z M 5.375 -10.015625 "/></g></g></g><g fill="#d8ae5e" fill-opacity="1"><g transform="translate(106.509273, 298.829716)"><g><path d="M 5.296875 0.15625 C 4.660156 0.15625 4.070312 0.0664062 3.53125 -0.109375 C 3 -0.285156 2.539062 -0.585938 2.15625 -1.015625 C 1.78125 -1.441406 1.484375 -2.015625 1.265625 -2.734375 C 1.046875 -3.453125 0.9375 -4.359375 0.9375 -5.453125 C 0.9375 -6.535156 1.046875 -7.4375 1.265625 -8.15625 C 1.484375 -8.882812 1.78125 -9.457031 2.15625 -9.875 C 2.539062 -10.300781 3 -10.601562 3.53125 -10.78125 C 4.070312 -10.957031 4.660156 -11.046875 5.296875 -11.046875 C 5.921875 -11.046875 6.5 -10.957031 7.03125 -10.78125 C 7.570312 -10.601562 8.035156 -10.300781 8.421875 -9.875 C 8.804688 -9.457031 9.109375 -8.882812 9.328125 -8.15625 C 9.546875 -7.4375 9.65625 -6.535156 9.65625 -5.453125 C 9.65625 -4.359375 9.546875 -3.453125 9.328125 -2.734375 C 9.109375 -2.015625 8.804688 -1.441406 8.421875 -1.015625 C 8.035156 -0.585938 7.570312 -0.285156 7.03125 -0.109375 C 6.5 0.0664062 5.921875 0.15625 5.296875 0.15625 Z M 5.296875 -0.875 C 5.753906 -0.875 6.175781 -0.945312 6.5625 -1.09375 C 6.957031 -1.238281 7.296875 -1.484375 7.578125 -1.828125 C 7.859375 -2.171875 8.078125 -2.640625 8.234375 -3.234375 C 8.390625 -3.828125 8.46875 -4.566406 8.46875 -5.453125 C 8.46875 -6.335938 8.382812 -7.078125 8.21875 -7.671875 C 8.0625 -8.265625 7.84375 -8.734375 7.5625 -9.078125 C 7.28125 -9.429688 6.941406 -9.675781 6.546875 -9.8125 C 6.160156 -9.945312 5.742188 -10.015625 5.296875 -10.015625 C 4.835938 -10.015625 4.410156 -9.945312 4.015625 -9.8125 C 3.628906 -9.675781 3.296875 -9.429688 3.015625 -9.078125 C 2.734375 -8.734375 2.507812 -8.265625 2.34375 -7.671875 C 2.1875 -7.078125 2.109375 -6.335938 2.109375 -5.453125 C 2.109375 -4.546875 2.1875 -3.796875 2.34375 -3.203125 C 2.507812 -2.609375 2.734375 -2.140625 3.015625 -1.796875 C 3.304688 -1.460938 3.644531 -1.222656 4.03125 -1.078125 C 4.425781 -0.941406 4.847656 -0.875 5.296875 -0.875 Z M 5.296875 -0.875 "/></g></g></g><g fill="#d8ae5e" fill-opacity="1"><g transform="translate(117.083773, 298.829716)"><g><path d="M 2.421875 -8.5 L 2.421875 0 L 1.25 0 L 1.25 -10.890625 L 2.265625 -10.890625 L 7.71875 -2.390625 L 7.71875 -10.890625 L 8.90625 -10.890625 L 8.90625 0 L 7.875 0 Z M 2.421875 -8.5 "/></g></g></g><g fill="#d8ae5e" fill-opacity="1"><g transform="translate(127.222849, 298.829716)"><g><path d="M 7.015625 -9.484375 L 6.734375 -9.484375 C 6.429688 -9.648438 6.078125 -9.78125 5.671875 -9.875 C 5.265625 -9.96875 4.84375 -10.015625 4.40625 -10.015625 C 3.695312 -10.015625 3.125 -9.863281 2.6875 -9.5625 C 2.257812 -9.269531 2.046875 -8.765625 2.046875 -8.046875 C 2.046875 -7.691406 2.097656 -7.394531 2.203125 -7.15625 C 2.316406 -6.925781 2.476562 -6.726562 2.6875 -6.5625 C 2.90625 -6.40625 3.160156 -6.265625 3.453125 -6.140625 C 3.753906 -6.015625 4.09375 -5.894531 4.46875 -5.78125 C 4.851562 -5.644531 5.210938 -5.503906 5.546875 -5.359375 C 5.890625 -5.222656 6.1875 -5.050781 6.4375 -4.84375 C 6.695312 -4.632812 6.898438 -4.367188 7.046875 -4.046875 C 7.203125 -3.722656 7.28125 -3.316406 7.28125 -2.828125 C 7.28125 -2.296875 7.191406 -1.84375 7.015625 -1.46875 C 6.835938 -1.09375 6.59375 -0.785156 6.28125 -0.546875 C 5.976562 -0.304688 5.609375 -0.128906 5.171875 -0.015625 C 4.742188 0.0976562 4.273438 0.15625 3.765625 0.15625 C 3.222656 0.15625 2.664062 0.0976562 2.09375 -0.015625 C 1.519531 -0.128906 1.03125 -0.28125 0.625 -0.46875 L 0.9375 -1.5 C 1.15625 -1.40625 1.382812 -1.320312 1.625 -1.25 C 1.875 -1.175781 2.128906 -1.109375 2.390625 -1.046875 C 2.648438 -0.992188 2.90625 -0.953125 3.15625 -0.921875 C 3.414062 -0.890625 3.660156 -0.875 3.890625 -0.875 C 4.546875 -0.875 5.078125 -1.019531 5.484375 -1.3125 C 5.890625 -1.601562 6.09375 -2.0625 6.09375 -2.6875 C 6.09375 -3 6.039062 -3.257812 5.9375 -3.46875 C 5.832031 -3.6875 5.679688 -3.875 5.484375 -4.03125 C 5.296875 -4.1875 5.0625 -4.320312 4.78125 -4.4375 C 4.5 -4.550781 4.1875 -4.664062 3.84375 -4.78125 C 3.457031 -4.914062 3.082031 -5.054688 2.71875 -5.203125 C 2.363281 -5.347656 2.050781 -5.535156 1.78125 -5.765625 C 1.507812 -5.992188 1.289062 -6.285156 1.125 -6.640625 C 0.957031 -6.992188 0.875 -7.441406 0.875 -7.984375 C 0.875 -8.546875 0.960938 -9.019531 1.140625 -9.40625 C 1.328125 -9.789062 1.578125 -10.101562 1.890625 -10.34375 C 2.203125 -10.59375 2.578125 -10.769531 3.015625 -10.875 C 3.453125 -10.988281 3.921875 -11.046875 4.421875 -11.046875 C 4.640625 -11.046875 4.867188 -11.035156 5.109375 -11.015625 C 5.347656 -10.992188 5.582031 -10.960938 5.8125 -10.921875 C 6.039062 -10.890625 6.257812 -10.84375 6.46875 -10.78125 C 6.675781 -10.71875 6.859375 -10.644531 7.015625 -10.5625 Z M 7.015625 -9.484375 "/></g></g></g><g fill="#d8ae5e" fill-opacity="1"><g transform="translate(135.433641, 298.829716)"><g><path d="M 7.875 -10.890625 L 7.875 -9.859375 L 4.765625 -9.859375 L 4.765625 0 L 3.578125 0 L 3.578125 -9.859375 L 0.46875 -9.859375 L 0.46875 -10.890625 Z M 7.875 -10.890625 "/></g></g></g><g fill="#d8ae5e" fill-opacity="1"><g transform="translate(143.76883, 298.829716)"><g><path d="M 2.421875 0 L 1.25 0 L 1.25 -10.890625 L 4.484375 -10.890625 C 5.117188 -10.890625 5.65625 -10.8125 6.09375 -10.65625 C 6.53125 -10.507812 6.890625 -10.300781 7.171875 -10.03125 C 7.453125 -9.757812 7.65625 -9.429688 7.78125 -9.046875 C 7.90625 -8.671875 7.96875 -8.25 7.96875 -7.78125 C 7.96875 -7.019531 7.796875 -6.378906 7.453125 -5.859375 C 7.117188 -5.335938 6.554688 -4.984375 5.765625 -4.796875 C 5.941406 -4.679688 6.101562 -4.53125 6.25 -4.34375 C 6.394531 -4.15625 6.539062 -3.925781 6.6875 -3.65625 L 8.4375 -0.265625 L 8.4375 0 L 7.25 0 L 5.390625 -3.609375 C 5.179688 -4.015625 4.957031 -4.289062 4.71875 -4.4375 C 4.488281 -4.59375 4.175781 -4.671875 3.78125 -4.671875 L 2.421875 -4.671875 Z M 4.390625 -5.703125 C 5.191406 -5.703125 5.789062 -5.851562 6.1875 -6.15625 C 6.582031 -6.46875 6.78125 -7.007812 6.78125 -7.78125 C 6.78125 -8.550781 6.582031 -9.085938 6.1875 -9.390625 C 5.789062 -9.703125 5.191406 -9.859375 4.390625 -9.859375 L 2.421875 -9.859375 L 2.421875 -5.703125 Z M 4.390625 -5.703125 "/></g></g></g><g fill="#d8ae5e" fill-opacity="1"><g transform="translate(152.570549, 298.829716)"><g><path d="M 2.421875 -3.578125 C 2.421875 -3.171875 2.460938 -2.800781 2.546875 -2.46875 C 2.640625 -2.132812 2.785156 -1.847656 2.984375 -1.609375 C 3.191406 -1.378906 3.46875 -1.195312 3.8125 -1.0625 C 4.164062 -0.9375 4.597656 -0.875 5.109375 -0.875 C 5.617188 -0.875 6.046875 -0.9375 6.390625 -1.0625 C 6.734375 -1.195312 7.003906 -1.378906 7.203125 -1.609375 C 7.410156 -1.847656 7.554688 -2.132812 7.640625 -2.46875 C 7.734375 -2.800781 7.78125 -3.171875 7.78125 -3.578125 L 7.78125 -10.890625 L 8.96875 -10.890625 L 8.96875 -3.578125 C 8.96875 -3.140625 8.90625 -2.695312 8.78125 -2.25 C 8.65625 -1.8125 8.441406 -1.410156 8.140625 -1.046875 C 7.835938 -0.691406 7.4375 -0.398438 6.9375 -0.171875 C 6.445312 0.046875 5.835938 0.15625 5.109375 0.15625 C 4.367188 0.15625 3.75 0.046875 3.25 -0.171875 C 2.757812 -0.398438 2.363281 -0.691406 2.0625 -1.046875 C 1.769531 -1.410156 1.5625 -1.8125 1.4375 -2.25 C 1.3125 -2.695312 1.25 -3.140625 1.25 -3.578125 L 1.25 -10.890625 L 2.421875 -10.890625 Z M 2.421875 -3.578125 "/></g></g></g><g fill="#d8ae5e" fill-opacity="1"><g transform="translate(162.771835, 298.829716)"><g><path d="M 5.375 -10.015625 C 4.90625 -10.015625 4.46875 -9.945312 4.0625 -9.8125 C 3.664062 -9.6875 3.320312 -9.445312 3.03125 -9.09375 C 2.738281 -8.75 2.507812 -8.28125 2.34375 -7.6875 C 2.1875 -7.09375 2.109375 -6.347656 2.109375 -5.453125 C 2.109375 -4.535156 2.191406 -3.78125 2.359375 -3.1875 C 2.523438 -2.59375 2.753906 -2.125 3.046875 -1.78125 C 3.347656 -1.445312 3.703125 -1.210938 4.109375 -1.078125 C 4.523438 -0.941406 4.972656 -0.875 5.453125 -0.875 C 6.003906 -0.875 6.484375 -0.945312 6.890625 -1.09375 C 7.304688 -1.238281 7.675781 -1.4375 8 -1.6875 L 8.5625 -0.78125 C 8.113281 -0.4375 7.625 -0.191406 7.09375 -0.046875 C 6.570312 0.0859375 6.015625 0.15625 5.421875 0.15625 C 4.765625 0.15625 4.160156 0.0703125 3.609375 -0.09375 C 3.054688 -0.269531 2.582031 -0.570312 2.1875 -1 C 1.789062 -1.425781 1.484375 -2 1.265625 -2.71875 C 1.046875 -3.4375 0.9375 -4.347656 0.9375 -5.453125 C 0.9375 -6.546875 1.046875 -7.453125 1.265625 -8.171875 C 1.492188 -8.898438 1.800781 -9.472656 2.1875 -9.890625 C 2.582031 -10.316406 3.054688 -10.613281 3.609375 -10.78125 C 4.160156 -10.957031 4.769531 -11.046875 5.4375 -11.046875 C 5.988281 -11.046875 6.492188 -10.988281 6.953125 -10.875 C 7.421875 -10.757812 7.851562 -10.554688 8.25 -10.265625 L 8.25 -9.15625 L 7.96875 -9.15625 C 7.664062 -9.414062 7.300781 -9.625 6.875 -9.78125 C 6.445312 -9.9375 5.945312 -10.015625 5.375 -10.015625 Z M 5.375 -10.015625 "/></g></g></g><g fill="#d8ae5e" fill-opacity="1"><g transform="translate(171.946768, 298.829716)"><g><path d="M 7.875 -10.890625 L 7.875 -9.859375 L 4.765625 -9.859375 L 4.765625 0 L 3.578125 0 L 3.578125 -9.859375 L 0.46875 -9.859375 L 0.46875 -10.890625 Z M 7.875 -10.890625 "/></g></g></g><g fill="#d8ae5e" fill-opacity="1"><g transform="translate(180.281958, 298.829716)"><g><path d="M 1.25 0 L 1.25 -10.890625 L 2.421875 -10.890625 L 2.421875 0 Z M 1.25 0 "/></g></g></g><g fill="#d8ae5e" fill-opacity="1"><g transform="translate(183.951929, 298.829716)"><g><path d="M 5.296875 0.15625 C 4.660156 0.15625 4.070312 0.0664062 3.53125 -0.109375 C 3 -0.285156 2.539062 -0.585938 2.15625 -1.015625 C 1.78125 -1.441406 1.484375 -2.015625 1.265625 -2.734375 C 1.046875 -3.453125 0.9375 -4.359375 0.9375 -5.453125 C 0.9375 -6.535156 1.046875 -7.4375 1.265625 -8.15625 C 1.484375 -8.882812 1.78125 -9.457031 2.15625 -9.875 C 2.539062 -10.300781 3 -10.601562 3.53125 -10.78125 C 4.070312 -10.957031 4.660156 -11.046875 5.296875 -11.046875 C 5.921875 -11.046875 6.5 -10.957031 7.03125 -10.78125 C 7.570312 -10.601562 8.035156 -10.300781 8.421875 -9.875 C 8.804688 -9.457031 9.109375 -8.882812 9.328125 -8.15625 C 9.546875 -7.4375 9.65625 -6.535156 9.65625 -5.453125 C 9.65625 -4.359375 9.546875 -3.453125 9.328125 -2.734375 C 9.109375 -2.015625 8.804688 -1.441406 8.421875 -1.015625 C 8.035156 -0.585938 7.570312 -0.285156 7.03125 -0.109375 C 6.5 0.0664062 5.921875 0.15625 5.296875 0.15625 Z M 5.296875 -0.875 C 5.753906 -0.875 6.175781 -0.945312 6.5625 -1.09375 C 6.957031 -1.238281 7.296875 -1.484375 7.578125 -1.828125 C 7.859375 -2.171875 8.078125 -2.640625 8.234375 -3.234375 C 8.390625 -3.828125 8.46875 -4.566406 8.46875 -5.453125 C 8.46875 -6.335938 8.382812 -7.078125 8.21875 -7.671875 C 8.0625 -8.265625 7.84375 -8.734375 7.5625 -9.078125 C 7.28125 -9.429688 6.941406 -9.675781 6.546875 -9.8125 C 6.160156 -9.945312 5.742188 -10.015625 5.296875 -10.015625 C 4.835938 -10.015625 4.410156 -9.945312 4.015625 -9.8125 C 3.628906 -9.675781 3.296875 -9.429688 3.015625 -9.078125 C 2.734375 -8.734375 2.507812 -8.265625 2.34375 -7.671875 C 2.1875 -7.078125 2.109375 -6.335938 2.109375 -5.453125 C 2.109375 -4.546875 2.1875 -3.796875 2.34375 -3.203125 C 2.507812 -2.609375 2.734375 -2.140625 3.015625 -1.796875 C 3.304688 -1.460938 3.644531 -1.222656 4.03125 -1.078125 C 4.425781 -0.941406 4.847656 -0.875 5.296875 -0.875 Z M 5.296875 -0.875 "/></g></g></g><g fill="#d8ae5e" fill-opacity="1"><g transform="translate(194.526429, 298.829716)"><g><path d="M 2.421875 -8.5 L 2.421875 0 L 1.25 0 L 1.25 -10.890625 L 2.265625 -10.890625 L 7.71875 -2.390625 L 7.71875 -10.890625 L 8.90625 -10.890625 L 8.90625 0 L 7.875 0 Z M 2.421875 -8.5 "/></g></g></g><g fill="#d8ae5e" fill-opacity="1"><g transform="translate(204.665505, 298.829716)"><g/></g></g><g fill="#d8ae5e" fill-opacity="1"><g transform="translate(209.486237, 298.829716)"><g><path d="M 5.375 -10.015625 C 4.90625 -10.015625 4.46875 -9.945312 4.0625 -9.8125 C 3.664062 -9.6875 3.320312 -9.445312 3.03125 -9.09375 C 2.738281 -8.75 2.507812 -8.28125 2.34375 -7.6875 C 2.1875 -7.09375 2.109375 -6.347656 2.109375 -5.453125 C 2.109375 -4.535156 2.191406 -3.78125 2.359375 -3.1875 C 2.523438 -2.59375 2.753906 -2.125 3.046875 -1.78125 C 3.347656 -1.445312 3.703125 -1.210938 4.109375 -1.078125 C 4.523438 -0.941406 4.972656 -0.875 5.453125 -0.875 C 6.003906 -0.875 6.484375 -0.945312 6.890625 -1.09375 C 7.304688 -1.238281 7.675781 -1.4375 8 -1.6875 L 8.5625 -0.78125 C 8.113281 -0.4375 7.625 -0.191406 7.09375 -0.046875 C 6.570312 0.0859375 6.015625 0.15625 5.421875 0.15625 C 4.765625 0.15625 4.160156 0.0703125 3.609375 -0.09375 C 3.054688 -0.269531 2.582031 -0.570312 2.1875 -1 C 1.789062 -1.425781 1.484375 -2 1.265625 -2.71875 C 1.046875 -3.4375 0.9375 -4.347656 0.9375 -5.453125 C 0.9375 -6.546875 1.046875 -7.453125 1.265625 -8.171875 C 1.492188 -8.898438 1.800781 -9.472656 2.1875 -9.890625 C 2.582031 -10.316406 3.054688 -10.613281 3.609375 -10.78125 C 4.160156 -10.957031 4.769531 -11.046875 5.4375 -11.046875 C 5.988281 -11.046875 6.492188 -10.988281 6.953125 -10.875 C 7.421875 -10.757812 7.851562 -10.554688 8.25 -10.265625 L 8.25 -9.15625 L 7.96875 -9.15625 C 7.664062 -9.414062 7.300781 -9.625 6.875 -9.78125 C 6.445312 -9.9375 5.945312 -10.015625 5.375 -10.015625 Z M 5.375 -10.015625 "/></g></g></g><g fill="#d8ae5e" fill-opacity="1"><g transform="translate(218.66117, 298.829716)"><g><path d="M 5.296875 0.15625 C 4.660156 0.15625 4.070312 0.0664062 3.53125 -0.109375 C 3 -0.285156 2.539062 -0.585938 2.15625 -1.015625 C 1.78125 -1.441406 1.484375 -2.015625 1.265625 -2.734375 C 1.046875 -3.453125 0.9375 -4.359375 0.9375 -5.453125 C 0.9375 -6.535156 1.046875 -7.4375 1.265625 -8.15625 C 1.484375 -8.882812 1.78125 -9.457031 2.15625 -9.875 C 2.539062 -10.300781 3 -10.601562 3.53125 -10.78125 C 4.070312 -10.957031 4.660156 -11.046875 5.296875 -11.046875 C 5.921875 -11.046875 6.5 -10.957031 7.03125 -10.78125 C 7.570312 -10.601562 8.035156 -10.300781 8.421875 -9.875 C 8.804688 -9.457031 9.109375 -8.882812 9.328125 -8.15625 C 9.546875 -7.4375 9.65625 -6.535156 9.65625 -5.453125 C 9.65625 -4.359375 9.546875 -3.453125 9.328125 -2.734375 C 9.109375 -2.015625 8.804688 -1.441406 8.421875 -1.015625 C 8.035156 -0.585938 7.570312 -0.285156 7.03125 -0.109375 C 6.5 0.0664062 5.921875 0.15625 5.296875 0.15625 Z M 5.296875 -0.875 C 5.753906 -0.875 6.175781 -0.945312 6.5625 -1.09375 C 6.957031 -1.238281 7.296875 -1.484375 7.578125 -1.828125 C 7.859375 -2.171875 8.078125 -2.640625 8.234375 -3.234375 C 8.390625 -3.828125 8.46875 -4.566406 8.46875 -5.453125 C 8.46875 -6.335938 8.382812 -7.078125 8.21875 -7.671875 C 8.0625 -8.265625 7.84375 -8.734375 7.5625 -9.078125 C 7.28125 -9.429688 6.941406 -9.675781 6.546875 -9.8125 C 6.160156 -9.945312 5.742188 -10.015625 5.296875 -10.015625 C 4.835938 -10.015625 4.410156 -9.945312 4.015625 -9.8125 C 3.628906 -9.675781 3.296875 -9.429688 3.015625 -9.078125 C 2.734375 -8.734375 2.507812 -8.265625 2.34375 -7.671875 C 2.1875 -7.078125 2.109375 -6.335938 2.109375 -5.453125 C 2.109375 -4.546875 2.1875 -3.796875 2.34375 -3.203125 C 2.507812 -2.609375 2.734375 -2.140625 3.015625 -1.796875 C 3.304688 -1.460938 3.644531 -1.222656 4.03125 -1.078125 C 4.425781 -0.941406 4.847656 -0.875 5.296875 -0.875 Z M 5.296875 -0.875 "/></g></g></g><g fill="#d8ae5e" fill-opacity="1"><g transform="translate(229.235671, 298.829716)"><g><path d="M 10.984375 0 L 9.796875 0 L 9.34375 -8.28125 L 6.5 -2.484375 L 5.484375 -2.484375 L 2.65625 -8.25 L 2.171875 0 L 1 0 L 1.625 -10.890625 L 2.640625 -10.890625 L 5.984375 -4.0625 L 9.34375 -10.890625 L 10.359375 -10.890625 Z M 10.984375 0 "/></g></g></g><g fill="#d8ae5e" fill-opacity="1"><g transform="translate(241.209738, 298.829716)"><g><path d="M 2.421875 0 L 1.25 0 L 1.25 -10.890625 L 4.53125 -10.890625 C 5.175781 -10.890625 5.71875 -10.8125 6.15625 -10.65625 C 6.601562 -10.507812 6.96875 -10.289062 7.25 -10 C 7.53125 -9.71875 7.734375 -9.367188 7.859375 -8.953125 C 7.992188 -8.535156 8.0625 -8.066406 8.0625 -7.546875 C 8.0625 -7.023438 7.992188 -6.554688 7.859375 -6.140625 C 7.734375 -5.734375 7.53125 -5.382812 7.25 -5.09375 C 6.96875 -4.8125 6.601562 -4.59375 6.15625 -4.4375 C 5.71875 -4.28125 5.175781 -4.203125 4.53125 -4.203125 L 2.421875 -4.203125 Z M 4.4375 -5.234375 C 5.25 -5.234375 5.859375 -5.40625 6.265625 -5.75 C 6.671875 -6.09375 6.875 -6.691406 6.875 -7.546875 C 6.875 -8.398438 6.671875 -9 6.265625 -9.34375 C 5.859375 -9.6875 5.25 -9.859375 4.4375 -9.859375 L 2.421875 -9.859375 L 2.421875 -5.234375 Z M 4.4375 -5.234375 "/></g></g></g><g fill="#d8ae5e" fill-opacity="1"><g transform="translate(250.04255, 298.829716)"><g><path d="M 8.734375 -0.28125 L 8.734375 0 L 7.609375 0 L 6.703125 -2.515625 L 2.328125 -2.515625 L 1.4375 0 L 0.3125 0 L 0.328125 -0.28125 L 4.09375 -10.890625 L 4.96875 -10.890625 Z M 6.34375 -3.546875 L 4.53125 -8.625 L 2.703125 -3.546875 Z M 6.34375 -3.546875 "/></g></g></g><g fill="#d8ae5e" fill-opacity="1"><g transform="translate(259.093075, 298.829716)"><g><path d="M 2.421875 -8.5 L 2.421875 0 L 1.25 0 L 1.25 -10.890625 L 2.265625 -10.890625 L 7.71875 -2.390625 L 7.71875 -10.890625 L 8.90625 -10.890625 L 8.90625 0 L 7.875 0 Z M 2.421875 -8.5 "/></g></g></g><g fill="#d8ae5e" fill-opacity="1"><g transform="translate(269.232151, 298.829716)"><g><path d="M 3.625 -4.1875 L 0.3125 -10.609375 L 0.3125 -10.890625 L 1.484375 -10.890625 L 4.21875 -5.578125 L 6.953125 -10.890625 L 8.125 -10.890625 L 8.125 -10.609375 L 4.8125 -4.1875 L 4.8125 0 L 3.625 0 Z M 3.625 -4.1875 "/></g></g></g></svg>